HIERARCHY
ROOT Hip
{
  OFFSET 0.0 0.0 0.0
  CHANNELS 6 Xposition Yposition Zposition Xrotation Yrotation Zrotation
  JOINT LowerSpine
  {
    OFFSET 0.0 0.061367 -0.03653
    CHANNELS 3 Xrotation Yrotation Zrotation
    JOINT MiddleSpine
    {
      OFFSET 0.0 0.056002 0.002633
      CHANNELS 3 Xrotation Yrotation Zrotation
      JOINT Chest
      {
        OFFSET 0.0 0.069296 -0.013882
        CHANNELS 3 Xrotation Yrotation Zrotation
        JOINT Neck
        {
          OFFSET 0.0 0.156156 -0.002923
          CHANNELS 3 Xrotation Yrotation Zrotation
          JOINT Head
          {
            OFFSET 0.0 0.088183 0.023986
            CHANNELS 3 Xrotation Yrotation Zrotation
            End Site
            {
              OFFSET 1e-06 0.123215 0.003678
            }
          }
        }
        JOINT LClavicle
        {
          OFFSET 0.014189 0.150698 0.046467
          CHANNELS 3 Xrotation Yrotation Zrotation
          JOINT LShoulder
          {
            OFFSET 0.082893 0.021616 -0.034976
            CHANNELS 3 Xrotation Yrotation Zrotation
            JOINT LForearm
            {
              OFFSET 0.195645 -0.000695 -0.001695
              CHANNELS 3 Xrotation Yrotation Zrotation
              JOINT LHand
              {
                OFFSET 0.163209 0.000474 -0.000977
                CHANNELS 3 Xrotation Yrotation Zrotation
                End Site
                {
                  OFFSET 0.0 0.006864 0.0
                }
              }
            }
          }
        }
        JOINT RClavicle
        {
          OFFSET -0.014189 0.150698 0.046467
          CHANNELS 3 Xrotation Yrotation Zrotation
          JOINT RShoulder
          {
            OFFSET -0.082908 0.021619 -0.034982
            CHANNELS 3 Xrotation Yrotation Zrotation
            JOINT RForearm
            {
              OFFSET -0.195645 -0.000695 -0.001695
              CHANNELS 3 Xrotation Yrotation Zrotation
              JOINT RHand
              {
                OFFSET -0.163209 0.000474 -0.000977
                CHANNELS 3 Xrotation Yrotation Zrotation
                End Site
                {
                  OFFSET 0.0 0.006864 0.0
                }
              }
            }
          }
        }
      }
    }
  }
  JOINT RThigh
  {
    OFFSET -0.072558 0.02774 -0.005953
    CHANNELS 3 Xrotation Yrotation Zrotation
    JOINT RShin
    {
      OFFSET -0.005253 -0.285537 0.0
      CHANNELS 3 Xrotation Yrotation Zrotation
      JOINT RFoot
      {
        OFFSET 0.0 -0.28038 0.0
        CHANNELS 3 Xrotation Yrotation Zrotation
        JOINT RToe
        {
          OFFSET 0.0 -0.030816 0.064441
          CHANNELS 3 Xrotation Yrotation Zrotation
          End Site
          {
            OFFSET 0.0 0.0 0.043231
          }
        }
      }
    }
  }
  JOINT LThigh
  {
    OFFSET 0.072557 0.027741 -0.005953
    CHANNELS 3 Xrotation Yrotation Zrotation
    JOINT LShin
    {
      OFFSET 0.005253 -0.285539 0.0
      CHANNELS 3 Xrotation Yrotation Zrotation
      JOINT LFoot
      {
        OFFSET 0.0 -0.28038 0.0
        CHANNELS 3 Xrotation Yrotation Zrotation
        JOINT LToe
        {
          OFFSET 0.0 -0.030816 0.064441
          CHANNELS 3 Xrotation Yrotation Zrotation
          End Site
          {
            OFFSET 0.0 0.0 0.043231
          }
        }
      }
    }
  }
}
MOTION
Frames: 6
Frame Time: 0.03333333333333333
0.13903 0.573646 1.668061 12.596539 -45.389473 5.107623 -1.393892 -0.65386 -0.078362 -1.734287 -1.094643 1.490332 -9.720259 -7.947145 3.99941 -1.861184 0.324571 -0.26647 0.023798 -0.144223 -0.003304 0.986736 0.606183 -16.48909 18.734106 -33.806866 -56.140667 11.176058 -19.446892 -1.401837 0.051452 0.119256 -0.060722 0.018854 0.05432 13.742207 27.03689 24.560221 57.844769 7.694201 11.353851 2.721907 0.010605 -0.162969 -0.00709 -7.709064 -13.267814 8.020074 2.095834 -6.838588 0.135142 -0.017927 2.467819 0.405184 -0.052052 0.221647 0.101975 -5.515256 -3.801604 2.619827 19.411825 -0.071632 0.605979 -1.202938 0.197756 0.444228 -0.153562 -0.04944 -0.007938 
0.126724 0.569125 1.671274 12.938447 -46.822384 6.045151 -1.329019 -0.614058 -0.101412 -1.592137 -0.934358 1.382713 -9.572731 -7.354758 3.474385 -1.84506 0.319286 -0.188076 0.027545 -0.106845 0.003183 0.925498 0.616042 -16.484673 20.083612 -34.708832 -56.085835 12.882273 -17.208023 -1.701533 0.044629 0.103709 -0.049005 0.090044 0.236738 13.665893 26.668531 27.841675 56.763203 7.308808 11.189574 2.670549 0.050448 -0.181226 -0.001908 -5.694135 -12.450027 7.371983 0.668863 -6.566234 0.362836 -0.642629 2.307863 0.419451 -0.035651 0.203238 0.096967 -7.927058 -4.531391 2.993924 22.03582 -0.485896 0.639678 -1.087665 0.193165 0.366391 -0.106997 -0.03049 0.001618 
0.115539 0.572018 1.682802 12.453019 -46.536953 6.536671 -1.316247 -0.54194 -0.06851 -1.43973 -0.721777 1.232691 -9.742833 -6.659042 2.72613 -1.901225 0.331488 -0.098381 0.034185 -0.077838 0.009366 0.76846 0.517408 -16.453403 21.426531 -35.329529 -56.22443 13.803275 -15.097775 -1.973704 0.042459 0.096842 -0.043261 0.085477 0.558831 13.653019 26.595667 30.221972 55.633297 6.833001 11.186936 2.659181 0.076734 -0.197119 0.000245 -4.021483 -10.964684 6.310924 0.113897 -6.06516 0.509474 -1.269322 2.13833 0.369695 -0.021918 0.190984 0.096372 -10.577444 -5.030606 2.510282 22.291437 -0.992169 0.575481 -1.022379 0.122906 0.310347 -0.052489 -0.026837 0.00276 
0.107342 0.572557 1.689608 11.936077 -48.610458 7.330294 -1.359155 -0.441532 0.041597 -1.335118 -0.607135 1.060832 -9.735231 -5.907535 1.995708 -1.896855 0.359052 -0.020435 0.036472 -0.069857 0.021906 0.540496 0.374945 -16.548172 21.770205 -34.613689 -57.32584 12.487696 -13.369261 -2.087657 0.042001 0.089792 -0.043277 0.010137 1.031585 13.750687 25.536816 30.501484 55.144066 6.079698 11.842985 2.480235 0.070036 -0.199372 -0.002337 -2.255074 -9.028134 5.639694 0.095983 -5.377111 0.472777 -1.687135 2.000313 0.326767 -0.034818 0.170094 0.093382 -13.253122 -5.602883 1.024081 20.136873 -1.980822 0.634912 -1.091684 0.143478 0.328179 -0.01028 -0.042035 -0.01037 
0.098101 0.571579 1.694609 12.269591 -55.112068 9.207523 -1.450619 -0.373729 0.181218 -1.248473 -0.434402 0.950387 -9.291631 -4.94807 1.550691 -1.941449 0.405247 -0.011667 0.037643 -0.098418 0.035759 0.363338 0.122075 -16.693396 21.759905 -33.346386 -59.107399 10.390303 -12.11417 -2.103548 0.050159 0.102792 -0.057437 -0.005326 1.274182 13.835766 24.121881 29.542006 55.062408 5.113997 13.209326 2.153781 0.042273 -0.210947 -0.01003 -0.395654 -6.837394 5.42442 -0.162157 -4.51532 0.273907 -1.736138 2.013272 0.315372 -0.079591 0.196353 0.104323 -14.360014 -5.185961 -0.364205 16.025253 -2.844288 0.939781 -1.209369 0.212474 0.418168 0.034007 -0.082064 -0.036614 
0.087903 0.569803 1.697157 13.919315 -62.640316 11.942575 -1.523919 -0.35521 0.208973 -1.291439 -0.394869 0.913243 -8.684643 -4.103669 1.667289 -1.985996 0.465976 -0.052897 0.030766 -0.125606 0.048068 0.265728 -0.097902 -16.673704 21.730839 -32.002701 -60.234325 9.140845 -11.880361 -2.35068 0.062588 0.12833 -0.081584 0.088761 1.113326 13.827291 22.783236 28.628452 55.620834 3.76217 13.401282 1.811263 0.027265 -0.226122 -0.0188 1.437735 -5.333346 5.376949 -0.55296 -3.791319 0.311708 -2.121359 2.035594 0.298473 -0.11847 0.248802 0.105409 -16.474228 -5.02946 -1.505652 12.56687 -3.557496 1.64896 -1.175476 0.333046 0.533056 0.074553 -0.116362 -0.057767 
